<?xml version="1.0" encoding="utf-8"?>
<!-- Generator: Adobe Illustrator 27.5.0, SVG Export Plug-In . SVG Version: 6.00 Build 0)  -->
<svg version="1.1" xmlns="http://www.w3.org/2000/svg" xmlns:xlink="http://www.w3.org/1999/xlink" x="0px" y="0px"
	 viewBox="0 0 2200 2200" style="enable-background:new 0 0 2200 2200;" xml:space="preserve">
<g id="background">
	<rect style="fill:#FFFFFF;" width="2200" height="2200"/>
</g>
<g id="Objects">
	<g>
		<rect x="292.43" y="478.376" style="fill:#66C5FF;" width="1706.756" height="1461.671"/>
		<path style="fill:#1C2023;" d="M1922.074,386.759h-242.537V274.457c0-8.01-6.494-14.504-14.504-14.504
			c-8.01,0-14.504,6.494-14.504,14.504v112.303h-368.549V274.457c0-8.01-6.494-14.504-14.504-14.504
			c-8.01,0-14.504,6.494-14.504,14.504v112.303H884.422V274.457c0-8.01-6.494-14.504-14.504-14.504s-14.504,6.494-14.504,14.504
			v112.303H486.863V274.457c0-8.01-6.494-14.504-14.504-14.504c-8.01,0-14.504,6.494-14.504,14.504v112.303H215.318
			c-8.01,0-14.504,6.494-14.504,14.504v1461.671c0,8.01,6.494,14.504,14.504,14.504h1706.756c8.01,0,14.504-6.494,14.504-14.504
			V401.264C1936.579,393.253,1930.085,386.759,1922.074,386.759z M457.855,415.768v55.531
			c-31.364,6.671-54.896,34.518-54.896,67.872c0,38.329,31.072,69.401,69.401,69.401c38.329,0,69.401-31.072,69.401-69.401
			c0-33.354-23.533-61.201-54.897-67.872v-55.531h368.549v55.531c-31.365,6.671-54.897,34.518-54.897,67.872
			c0,38.329,31.072,69.401,69.401,69.401s69.401-31.072,69.401-69.401c0-33.353-23.532-61.201-54.897-67.872v-55.531h368.549v55.531
			c-31.365,6.671-54.897,34.518-54.897,67.872c0,38.329,31.072,69.401,69.401,69.401c38.329,0,69.401-31.072,69.401-69.401
			c0-33.354-23.532-61.201-54.897-67.872v-55.531h368.549v55.531c-31.365,6.671-54.897,34.518-54.897,67.872
			c0,38.329,31.072,69.401,69.401,69.401c38.329,0,69.401-31.072,69.401-69.401c0-33.353-23.532-61.201-54.896-67.872v-55.531
			h228.033v325.67H229.822v-325.67H457.855z M229.822,1848.431V770.447H1907.57v1077.983H229.822z"/>
	</g>
</g>
</svg>
